# xmcd
# 
# Track frame offsets:
#     150
#     42587
#     76825
#     87425
#     138575
# 
# Disc length: 2313
# 
# Revision: 1
# Processed by: cddbd v1.5.2PL0 Copyright (c) Steve Scherf et al.
# Submitted via: BonkEnc v1.0.6
# 
DISCID=3c090705
DTITLE=Art Blakey and The Jazz Messengers - At The Jazz Corners Of The World Volume 1
DYEAR=1959
DGENRE=Jazz
TTITLE0=Hipsippy Blues
TTITLE1=Justice
TTITLE2=The Theme
TTITLE3=Close Your Eyes
TTITLE4=Just Coolin'
EXTD=
EXTT0=
EXTT1=
EXTT2=
EXTT3=
EXTT4=
PLAYORDER=
